{"title":"Once_Upon ATime_Mumbai Dobara (2013) Hindi Movie DTHRip x264-GOP","uid":8998068,"size":472265174,"categoryP":"video","categoryS":"hd___movies","magnet":"?xt=urn:btih:a33d230b7574959df37b33736ab78bcb78e29195&amp;dn=Once_Upon+ATime_Mumbai+Dobara+%282013%29+Hindi+Movie+DTHRip+x264-GOP&amp;tr=udp%3A%2F%2Ftracker.openbittorrent.com%3A80&amp;tr=udp%3A%2F%2Fopen.demonii.com%3A1337&amp;tr=udp%3A%2F%2Ftracker.coppersurfer.tk%3A6969&amp;tr=udp%3A%2F%2Fexodus.desync.com%3A6969","seeders":1,"leechers":0,"uploader":"jatt13","files":6,"time":1380906832,"description":"Video\nID                             : 1\nFormat                         : AVC\nFormat/Info                    : Advanced Video Codec\nFormat profile                 : &lt;a class=&quot;__cf_email__&quot; href=&quot;/cdn-cgi/l/email-protection&quot; data-cfemail=&quot;3578545c5b7579061b05&quot;&gt;[email&amp;#160;protected]&lt;/a&gt;&lt;script cf-hash='f9e31' type=&quot;text/javascript&quot;&gt;\n/* &lt;![CDATA[ */!function(){try{var t=&quot;currentScript&quot;in document?document.currentScript:function(){for(var t=document.getElementsByTagName(&quot;script&quot;),e=t.length;e--;)if(t[e].getAttribute(&quot;cf-hash&quot;))return t[e]}();if(t&amp;&amp;t.previousSibling){var e,r,n,i,c=t.previousSibling,a=c.getAttribute(&quot;data-cfemail&quot;);if(a){for(e=&quot;&quot;,r=parseInt(a.substr(0,2),16),n=2;a.length-n;n+=2)i=parseInt(a.substr(n,2),16)^r,e+=String.fromCharCode(i);e=document.createTextNode(e),c.parentNode.replaceChild(e,c)}}}catch(u){}}();/* ]]&gt; */&lt;/script&gt;\nFormat settings, CABAC         : Yes\nFormat settings, ReFrames      : 1 frame\nCodec ID                       : avc1\nCodec ID/Info                  : Advanced Video Coding\nDuration                       : 2h 13mn\nBit rate                       : 350 Kbps\nWidth                          : 640 pixels\nHeight                         : 360 pixels\nDisplay aspect ratio           : 16:9\nFrame rate mode                : Constant\nFrame rate                     : 23.976 fps\nColor space                    : YUV\nChroma subsampling             : 4:2:0\nBit depth                      : 8 bits\nScan type                      : Progressive\nBits/(Pixel*Frame)             : 0.063\nStream size                    : 335 MiB (75%)\nLanguage                       : English\nEncoded date                   : UTC 2013-10-01 05:36:10\nTagged date                    : UTC 2013-10-01 05:36:10\nColor primaries                : BT.709\nTransfer characteristics       : BT.709\nMatrix coefficients            : BT.709\n\nAudio\nID                             : 2\nFormat                         : AAC\nFormat/Info                    : Advanced Audio Codec\nFormat profile                 : LC\nCodec ID                       : 40\nDuration                       : 2h 13mn\nBit rate mode                  : Constant\nBit rate                       : 115 Kbps\nNominal bit rate               : 48.0 Kbps\nChannel count                  : 2 channels\nChannel positions              : Front: L R\nSampling rate                  : 48.0 KHz\nCompression mode               : Lossy\nStream size                    : 110 MiB (25%)\nLanguage                       : English\nEncoded date                   : UTC 2013-10-01 05:36:10\nTagged date                    : UTC 2013-10-01 05:36:10\n\n[img]http://imageshack.us/a/img812/7885/n7vx.jpg[/img]\n[img]http://imageshack.us/a/img22/106/s3o4.png[/img]\n[img]http://imageshack.us/a/img62/5233/sk60.png[/img]\n[img]http://imageshack.us/a/img593/2936/jnm9.png[/img]\n[img]http://imageshack.us/a/img820/2230/mdv.png[/img]","torrent":{"xt":"urn:btih:a33d230b7574959df37b33736ab78bcb78e29195","amp;dn":"Once_Upon+ATime_Mumbai+Dobara+%282013%29+Hindi+Movie+DTHRip+x264-GOP","amp;tr":["udp%3A%2F%2Ftracker.openbittorrent.com%3A80","udp%3A%2F%2Fopen.demonii.com%3A1337","udp%3A%2F%2Ftracker.coppersurfer.tk%3A6969","udp%3A%2F%2Fexodus.desync.com%3A6969"],"infoHash":"a33d230b7574959df37b33736ab78bcb78e29195","infoHashBuffer":{"type":"Buffer","data":[163,61,35,11,117,116,149,157,243,123,51,115,106,183,139,203,120,226,145,149]},"announce":[],"urlList":[]}}